<svg width="200" height="68" viewBox="0 0 200 68" fill="none" xmlns="http://www.w3.org/2000/svg">
<path d="M67.4748 22.7033H44.6128V0H22.7033C22.7033 12.5424 12.5424 22.7033 0 22.7033V44.6128H22.7033V67.3161H44.6128C44.6128 54.7737 54.9324 44.6128 67.4748 44.6128V22.7033Z" fill="#E82726"/>
<path d="M44.6109 22.6658L22.7014 44.6457V67.349H44.6109C44.6109 54.8066 54.9306 44.6457 67.473 44.6457V22.6658H44.6109Z" fill="white"/>
<path d="M113.751 47.5628L112.008 43.0083H98.1758L96.489 47.5628H89.4041L105.092 7.07794L120.836 47.5628H113.751ZM105.092 23.6655L100.313 37.3291H109.871L105.092 23.6655Z" fill="white"/>
<path d="M144.809 8.20252H152.85L138.062 28.951V47.5628H131.483V28.951L116.695 8.20252H124.736L134.801 22.2598L144.809 8.20252Z" fill="white"/>
<path d="M200 8.14629V47.5628H193.421V23.3844L182.119 47.5628H175.934L163.901 22.8783V47.5628H157.322V8.14629H164.013L178.97 38.7911L193.309 8.14629H200Z" fill="white"/>
<path d="M91.789 55.0104H91.1175V59.1947H91.8235V60.1159H89.4041V59.1947H90.1101V55.0104H89.4386V54.0891H91.789V55.0104Z" fill="white"/>
<path d="M94.4805 60.202C93.4387 60.1762 92.6122 59.5735 92.595 58.4456H93.6023C93.6195 58.945 94.0328 59.1947 94.4805 59.1947C94.9454 59.1947 95.3587 58.9019 95.3587 58.4284C95.3587 57.9204 94.8851 57.6019 94.4805 57.5847C94.4288 57.5847 94.0156 57.5847 93.5765 57.3866C92.948 57.0939 92.595 56.5601 92.595 55.8455C92.595 54.7004 93.5076 54.003 94.4805 54.003C95.5222 54.003 96.323 54.709 96.3402 55.7336H95.3415C95.3242 55.2342 94.9368 55.0104 94.4805 55.0104C94.0069 55.0104 93.6023 55.2859 93.6023 55.8455C93.6023 56.3449 94.0328 56.6118 94.4805 56.6118C94.5235 56.6118 94.9454 56.6118 95.3759 56.8098C96.013 57.1025 96.3574 57.7138 96.3574 58.4284C96.3574 59.5821 95.4534 60.202 94.4805 60.202Z" fill="white"/>
<path d="M100.507 54.0891V55.0104H99.2414V60.1159H98.2427V55.0104H96.977V54.0891H100.507Z" fill="white"/>
<path d="M104.031 60.1159L103.764 59.4185H101.646L101.387 60.1159H100.303L102.705 53.9169L105.115 60.1159H104.031ZM102.705 56.4568L101.973 58.5489H103.436L102.705 56.4568Z" fill="white"/>
<path d="M110.811 54.0891V60.1159H109.796L106.799 55.8283V60.1159H105.792V54.0891H106.808L109.813 58.3768V54.0891H110.811Z" fill="white"/>
<path d="M115.187 57.1111C116.323 57.3436 116.28 58.3854 116.28 58.3854C116.28 60.0384 114.593 60.1159 114.188 60.1159H112.182V54.0977H114.188C114.188 54.0977 116.194 54.0461 116.194 55.7852C116.194 56.5773 115.703 56.982 115.187 57.1111ZM113.181 55.0965V56.6032H114.188C114.188 56.6032 115.187 56.6032 115.187 55.8541C115.187 55.0448 114.188 55.0965 114.188 55.0965H113.181ZM114.188 59.1172C114.61 59.1172 115.273 59.0139 115.273 58.3595C115.273 57.5502 114.188 57.6105 114.188 57.6105H113.181V59.1172H114.188Z" fill="white"/>
<path d="M119.625 60.202C118.386 60.202 117.37 59.4271 117.37 58.1873V54.0891H118.377V58.1873C118.429 58.8847 118.988 59.1947 119.625 59.1947C120.254 59.1947 120.882 58.8589 120.882 58.1873V54.0891H121.89V58.1873C121.89 59.4702 120.908 60.202 119.625 60.202Z" fill="white"/>
<path d="M124.254 59.1086H126.484V60.1159H123.247V54.0891H124.254V59.1086Z" fill="white"/>
<path d="M133.533 57.1111C134.669 57.3436 134.626 58.3854 134.626 58.3854C134.626 60.0384 132.939 60.1159 132.534 60.1159H130.528V54.0891H132.534C132.534 54.0891 134.54 54.0461 134.54 55.7852C134.54 56.5773 134.049 56.982 133.533 57.1111ZM131.527 55.0878V56.6032H132.534C132.534 56.6032 133.533 56.6032 133.533 55.8541C133.533 55.0448 132.534 55.0878 132.534 55.0878H131.527ZM132.534 59.1172C132.956 59.1172 133.619 59.0139 133.619 58.3595C133.619 57.5502 132.534 57.6105 132.534 57.6105H131.527V59.1172H132.534Z" fill="white"/>
<path d="M135.742 60.1159V54.0891H136.749V60.1159H135.742Z" fill="white"/>
<path d="M139.136 59.1086H141.366V60.1159H138.129V54.0891H139.136V59.1086Z" fill="white"/>
<path d="M145.18 56.6893H147.789V60.1245H146.911L146.859 59.5735C146.368 60.0298 145.86 60.202 145.146 60.202C143.527 60.202 142.261 59.0741 142.261 57.1025C142.261 55.3117 143.613 54.003 145.275 54.003C146.11 54.003 146.859 54.3388 147.401 54.8898L146.695 55.5958C146.334 55.2342 145.826 55.0104 145.275 55.0104C144.164 55.0104 143.269 55.7852 143.269 57.1025C143.269 58.5748 144.164 59.1947 145.275 59.1947C145.877 59.1947 146.411 58.9364 146.781 58.5145V57.576H145.18V56.6893Z" fill="white"/>
<path d="M149.127 60.1159V54.0891H150.134V60.1159H149.127Z" fill="white"/>
<path d="M156.738 60.202C155.498 60.202 154.482 59.4271 154.482 58.1873V54.0891H155.49V58.1873C155.541 58.8847 156.101 59.1947 156.738 59.1947C157.366 59.1947 157.995 58.8589 157.995 58.1873V54.0891H159.002V58.1873C159.002 59.4702 158.021 60.202 156.738 60.202Z" fill="white"/>
<path d="M165.379 54.0891V60.1159H164.363L161.367 55.8283V60.1159H160.359V54.0891H161.375L164.38 58.3768V54.0891H165.379Z" fill="white"/>
<path d="M166.775 60.1159V54.0891H167.783V60.1159H166.775Z" fill="white"/>
<path d="M172.21 54.0891H173.295L170.884 60.2709L168.482 54.0891H169.567L170.884 57.6449L172.21 54.0891Z" fill="white"/>
<path d="M178.001 55.0965H174.987V56.6032H177.493V57.6019H174.987V59.1086H178.001V60.1159H173.98V54.0891H178.001V55.0965Z" fill="white"/>
<path d="M182.012 60.1159L180.858 57.6019H180.04V60.1159H179.033V54.0891H181.039C181.039 54.0891 183.054 54.0891 183.054 55.8455C183.054 56.8184 182.434 57.2489 181.892 57.4469L183.123 60.1159H182.012ZM180.04 55.0965V56.6032H181.039C181.039 56.6032 182.046 56.6031 182.046 55.8455C182.046 55.0965 181.039 55.0965 181.039 55.0965H180.04Z" fill="white"/>
<path d="M185.866 60.202C184.824 60.1762 183.998 59.5735 183.981 58.4456H184.988C185.005 58.945 185.418 59.1947 185.866 59.1947C186.331 59.1947 186.744 58.9019 186.744 58.4284C186.744 57.9204 186.271 57.6019 185.866 57.5847C185.814 57.5847 185.401 57.5847 184.962 57.3866C184.334 57.0939 183.981 56.5601 183.981 55.8455C183.981 54.7004 184.893 54.003 185.866 54.003C186.908 54.003 187.709 54.709 187.726 55.7336H186.727C186.71 55.2342 186.322 55.0104 185.866 55.0104C185.393 55.0104 184.988 55.2859 184.988 55.8455C184.988 56.3449 185.418 56.6118 185.866 56.6118C185.909 56.6118 186.331 56.6118 186.761 56.8098C187.399 57.1025 187.743 57.7138 187.743 58.4284C187.743 59.5821 186.839 60.202 185.866 60.202Z" fill="white"/>
<path d="M188.896 60.1159V54.0891H189.904V60.1159H188.896Z" fill="white"/>
<path d="M194.306 54.0891V55.0104H193.04V60.1159H192.041V55.0104H190.776V54.0891H194.306Z" fill="white"/>
<path d="M198.768 54.0891H199.999L197.734 57.2661V60.1159H196.727V57.2661L194.463 54.0891H195.694L197.235 56.2415L198.768 54.0891Z" fill="white"/>
</svg>
